<?xml version="1.0" standalone="no"?>
<!DOCTYPE svg PUBLIC "-//W3C//DTD SVG 20010904//EN"
 "http://www.w3.org/TR/2001/REC-SVG-20010904/DTD/svg10.dtd">
<svg version="1.0" xmlns="http://www.w3.org/2000/svg"
 width="200.000000pt" height="200.000000pt" viewBox="0 0 200.000000 200.000000"
 preserveAspectRatio="xMidYMid meet">

<g transform="translate(0.000000,200.000000) scale(0.100000,-0.100000)"
fill="#000000" stroke="none">
<path d="M570 1000 l0 -840 430 0 430 0 0 80 0 80 -240 0 -240 0 0 80 0 80
-95 0 -95 0 0 240 0 240 310 0 310 0 0 75 0 75 -212 2 -213 3 -5 80 -5 79 -90
1 -90 0 -3 203 -2 202 335 0 335 0 0 80 0 80 -430 0 -430 0 0 -840z"/>
</g>
</svg>
